<svg width="20" height="20" viewBox="0 0 20 20" fill="none" xmlns="http://www.w3.org/2000/svg">
<path fill-rule="evenodd" clip-rule="evenodd" d="M0 1C0 0.447715 0.447715 0 1 0H1.26393C2.40025 0 3.43904 0.642004 3.94721 1.65836L4.11803 2H17.2768C18.8125 2 19.7752 3.65896 19.0133 4.99228L16.4441 9.48842C15.91 10.4231 14.9159 11 13.8394 11H7.55425L6.30425 13H17C17.5523 13 18 13.4477 18 14C18 14.5523 17.5523 15 17 15H6.30425C4.73338 15 3.77569 13.2721 4.60825 11.94L5.85476 9.94559L2.61457 3.4652C2.60809 3.4529 2.60186 3.44044 2.59589 3.42784L2.15836 2.55278C1.98897 2.214 1.64271 2 1.26393 2H1C0.447715 2 0 1.55228 0 1ZM5.11803 4L7.61803 9H13.8394C14.1982 9 14.5296 8.80771 14.7076 8.49614L17.2768 4H5.11803ZM4 18C4 16.8954 4.89543 16 6 16C7.10457 16 8 16.8954 8 18C8 19.1046 7.10457 20 6 20C4.89543 20 4 19.1046 4 18ZM14 18C14 16.8954 14.8954 16 16 16C17.1046 16 18 16.8954 18 18C18 19.1046 17.1046 20 16 20C14.8954 20 14 19.1046 14 18Z" fill="white"/>
</svg>
